<svg width="136" height="32" viewBox="0 0 136 32" fill="none" xmlns="http://www.w3.org/2000/svg">
<path d="M19.6827 15.4493C18.9538 15.8643 18.1592 16.1511 17.3334 16.2973V31.832C18.0361 31.6952 18.7117 31.4443 19.3334 31.0893L27.3694 26.4507C28.3816 25.8638 29.2221 25.0217 29.807 24.0083C30.3919 22.995 30.7008 21.846 30.7027 20.676V11.396C30.6985 10.6837 30.5791 9.97686 30.3494 9.30267L19.6827 15.4493Z" fill="white"/>
<path d="M13.656 13.1427C14.3701 13.5534 15.1795 13.7696 16.0033 13.7696C16.8271 13.7696 17.6365 13.5534 18.3506 13.1427L29.0173 6.996C28.5449 6.45317 27.9874 5.99071 27.3666 5.62667L19.3333 0.982667C18.3192 0.399495 17.1698 0.0925852 16 0.0925852C14.8301 0.0925852 13.6808 0.399495 12.6666 0.982667L4.63064 5.62267C4.03204 5.97319 3.49215 6.41546 3.03064 6.93333L13.656 13.1427Z" fill="white"/>
<path d="M14.6667 16.2973C13.8403 16.1514 13.0452 15.8646 12.316 15.4493L1.67603 9.23067C1.4298 9.92624 1.30181 10.6581 1.29736 11.396V20.676C1.29931 21.846 1.60817 22.995 2.19308 24.0083C2.778 25.0217 3.61852 25.8638 4.6307 26.4507L12.6667 31.0893C13.2884 31.4443 13.964 31.6952 14.6667 31.832V16.2973Z" fill="white"/>
<path d="M45.632 23.6667V18.0773L39.9573 8.73333H44.672L47.744 14.1733L50.8373 8.73333H55.4667L49.792 18.0133V23.6667H45.632ZM58.9663 23.9227C56.9041 23.9227 55.0837 23.3538 53.505 22.216L55.0197 19.7627C56.3566 20.6444 57.6792 21.0853 58.9877 21.0853C59.6703 21.0853 60.0117 20.8649 60.0117 20.424C60.0117 20.2107 59.8694 20.04 59.585 19.912C59.3148 19.784 58.8383 19.6276 58.1557 19.4427C56.8046 19.0729 55.7806 18.632 55.0837 18.12C54.401 17.5938 54.0597 16.7902 54.0597 15.7093C54.0597 14.5147 54.4863 13.5831 55.3397 12.9147C56.2072 12.232 57.3237 11.8907 58.689 11.8907C60.4668 11.8907 62.0526 12.3387 63.4463 13.2347L62.0597 15.7947C60.7797 15.0836 59.6419 14.728 58.6463 14.728C58.0206 14.728 57.7077 14.9271 57.7077 15.3253C57.7077 15.5244 57.8428 15.6951 58.113 15.8373C58.3832 15.9653 58.8739 16.136 59.585 16.3493C60.2392 16.5342 60.7797 16.7191 61.2063 16.904C61.633 17.0747 62.0526 17.3022 62.465 17.5867C62.8774 17.8711 63.1832 18.2196 63.3823 18.632C63.5814 19.0302 63.681 19.5067 63.681 20.0613C63.681 21.2987 63.2543 22.2516 62.401 22.92C61.5477 23.5884 60.4028 23.9227 58.9663 23.9227ZM69.7163 23.9013C67.1279 23.9013 65.8337 22.6284 65.8337 20.0827V15.3893H64.4683V12.1253H65.8337V9.20267H69.887V12.1253H72.575V15.3893H69.887V19.2933C69.887 20.0613 70.2568 20.4453 70.9963 20.4453C71.4799 20.4453 71.9919 20.3173 72.5323 20.0613V23.24C71.7501 23.6809 70.8114 23.9013 69.7163 23.9013ZM79.8927 23.944C78.0722 23.944 76.5576 23.3609 75.3487 22.1947C74.1398 21.0142 73.5353 19.5849 73.5353 17.9067C73.5353 16.2427 74.1398 14.8204 75.3487 13.64C76.5718 12.4596 78.1007 11.8693 79.9353 11.8693C81.7558 11.8693 83.2704 12.4596 84.4793 13.64C85.6882 14.8062 86.2927 16.2284 86.2927 17.9067C86.2927 19.5707 85.6811 20.9929 84.458 22.1733C83.2491 23.3538 81.7273 23.944 79.8927 23.944ZM79.9353 20.5093C80.6607 20.5093 81.2438 20.2604 81.6847 19.7627C82.1256 19.2649 82.346 18.6462 82.346 17.9067C82.346 17.1956 82.1113 16.584 81.642 16.072C81.1727 15.56 80.5896 15.304 79.8927 15.304C79.1673 15.304 78.5842 15.5529 78.1433 16.0507C77.7024 16.5484 77.482 17.1671 77.482 17.9067C77.482 18.6178 77.7167 19.2293 78.186 19.7413C78.6553 20.2533 79.2384 20.5093 79.9353 20.5093ZM88.0047 23.6667V12.1253H92.058V14.4507C92.7976 12.7013 94.0136 11.8622 95.706 11.9333V16.2H95.3647C93.1602 16.2 92.058 17.4942 92.058 20.0827V23.6667H88.0047ZM99.8947 23.9227C98.7569 23.9227 97.8253 23.6098 97.1 22.984C96.3747 22.344 96.012 21.4551 96.012 20.3173C96.012 19.1511 96.4173 18.2551 97.228 17.6293C98.0387 17.0036 99.1409 16.6907 100.535 16.6907C101.544 16.6907 102.469 16.84 103.308 17.1387V16.9467C103.308 15.6951 102.54 15.0693 101.004 15.0693C99.9658 15.0693 98.9062 15.2827 97.8253 15.7093L96.9933 12.8507C98.444 12.2533 100.001 11.9547 101.665 11.9547C103.656 11.9547 105.121 12.424 106.06 13.3627C106.885 14.1733 107.297 15.3964 107.297 17.032V23.6667H103.287V22.472C102.419 23.4391 101.288 23.9227 99.8947 23.9227ZM101.345 21.384C101.943 21.384 102.426 21.2133 102.796 20.872C103.166 20.5164 103.351 20.0542 103.351 19.4853V18.952C102.881 18.7529 102.355 18.6533 101.772 18.6533C101.189 18.6533 100.734 18.7884 100.407 19.0587C100.08 19.3147 99.916 19.6702 99.916 20.1253C99.916 20.5093 100.044 20.8151 100.3 21.0427C100.57 21.2702 100.919 21.384 101.345 21.384ZM115.034 27.1227C112.9 27.1227 110.973 26.6818 109.252 25.8L110.554 23.112C111.862 23.8373 113.206 24.2 114.586 24.2C116.605 24.2 117.615 23.2542 117.615 21.3627V20.9147C116.619 22.0667 115.432 22.6427 114.052 22.6427C112.587 22.6427 111.364 22.152 110.383 21.1707C109.416 20.1893 108.932 18.8809 108.932 17.2453C108.932 15.6382 109.416 14.344 110.383 13.3627C111.364 12.3671 112.545 11.8693 113.924 11.8693C115.318 11.8693 116.527 12.4098 117.551 13.4907V12.1253H121.604V20.8933C121.604 22.9698 121.106 24.5058 120.111 25.5013C119.03 26.5822 117.338 27.1227 115.034 27.1227ZM115.268 19.528C115.951 19.528 116.513 19.3147 116.954 18.888C117.394 18.4613 117.615 17.9138 117.615 17.2453C117.615 16.6053 117.394 16.0791 116.954 15.6667C116.513 15.24 115.951 15.0267 115.268 15.0267C114.571 15.0267 114.002 15.24 113.562 15.6667C113.121 16.0933 112.9 16.6409 112.9 17.3093C112.9 17.9493 113.121 18.4827 113.562 18.9093C114.002 19.3218 114.571 19.528 115.268 19.528ZM129.493 23.944C127.672 23.944 126.186 23.3893 125.034 22.28C123.882 21.1707 123.306 19.7129 123.306 17.9067C123.306 16.2 123.854 14.7707 124.949 13.6187C126.044 12.4524 127.438 11.8693 129.13 11.8693C131.022 11.8693 132.465 12.4667 133.461 13.6613C134.456 14.856 134.954 16.3636 134.954 18.184C134.954 18.5538 134.947 18.8311 134.933 19.016H127.21C127.537 20.2818 128.369 20.9147 129.706 20.9147C130.616 20.9147 131.47 20.5236 132.266 19.7413L134.506 21.5973C133.269 23.1618 131.598 23.944 129.493 23.944ZM127.146 16.9467H131.157C131.086 16.3067 130.872 15.8018 130.517 15.432C130.161 15.048 129.706 14.856 129.152 14.856C128.625 14.856 128.184 15.048 127.829 15.432C127.488 15.8018 127.26 16.3067 127.146 16.9467Z" fill="white"/>
</svg>
